<?xml version="1.0" standalone="no"?>
<!DOCTYPE svg PUBLIC "-//W3C//DTD SVG 20010904//EN"
 "http://www.w3.org/TR/2001/REC-SVG-20010904/DTD/svg10.dtd">
<svg version="1.0" xmlns="http://www.w3.org/2000/svg"
 width="500.000000pt" height="500.000000pt" viewBox="0 0 500.000000 500.000000"
 preserveAspectRatio="xMidYMid meet">
<metadata>
Created by potrace 1.16, written by Peter Selinger 2001-2019
</metadata>
<g transform="translate(0.000000,500.000000) scale(0.100000,-0.100000)"
fill="#000000" stroke="none">
<path d="M0 3715 c0 -1112 2 -1285 14 -1283 8 2 15 -1 15 -7 0 -5 -7 -9 -15
-7 -16 3 -19 -14 -4 -23 13 -8 13 -55 0 -55 -6 0 -10 -77 -10 -210 0 -173 2
-210 14 -210 23 0 27 -29 6 -42 -11 -7 -20 -22 -20 -34 0 -21 3 -22 108 -19
59 2 91 1 72 -2 -19 -2 -39 -9 -45 -14 -13 -13 -28 -11 -19 3 5 8 0 9 -17 5
-13 -4 -41 -7 -61 -7 l-38 0 0 -70 c0 -43 4 -70 11 -70 5 0 42 5 81 11 47 7
73 8 80 1 14 -14 -53 -32 -119 -32 l-53 0 0 -825 0 -825 1905 0 1905 0 0 29
c0 16 7 35 16 42 14 11 19 10 35 -10 11 -13 19 -32 19 -42 0 -18 18 -19 560
-19 l560 0 0 475 c0 468 0 475 -20 475 -11 0 -20 5 -20 12 0 6 -3 8 -7 5 -11
-12 -33 14 -33 39 0 24 14 32 25 14 4 -7 12 -7 24 0 10 5 21 6 25 3 3 -3 6
565 5 1263 0 698 -3 1263 -6 1256 -2 -6 -9 -10 -14 -7 -12 8 -41 -66 -37 -96
3 -17 -1 -26 -10 -26 -8 0 -12 7 -9 19 4 14 -1 18 -18 18 -30 0 -40 -15 -37
-60 1 -19 -1 -29 -4 -22 -10 21 -24 13 -24 -14 0 -14 4 -23 10 -19 6 3 10 -1
10 -9 0 -20 -14 -20 -33 -2 -11 11 -17 12 -26 3 -8 -8 -11 -7 -11 6 0 22 -8
21 -77 -3 -32 -11 -66 -20 -76 -20 -10 0 -17 -5 -15 -12 6 -16 78 -27 141 -21
26 2 47 0 47 -5 0 -5 14 -9 32 -10 40 -1 56 -23 25 -36 l-22 -9 23 -4 c26 -5
27 -9 7 -56 -8 -19 -11 -38 -7 -43 4 -5 -3 0 -16 10 -20 17 -25 18 -48 6 -14
-8 -30 -22 -35 -32 -5 -10 -16 -18 -24 -18 -20 0 -29 -19 -16 -34 6 -7 9 -21
5 -30 -3 -9 -1 -16 5 -16 6 0 11 -4 11 -10 0 -5 -10 -10 -22 -10 -41 0 -52
-14 -39 -50 6 -18 9 -35 6 -39 -2 -4 11 -13 30 -20 31 -11 33 -15 29 -46 -3
-28 -1 -35 12 -35 9 0 23 8 30 18 9 11 13 12 14 4 0 -9 5 -10 19 -3 21 12 32
5 24 -15 -3 -8 -16 -14 -29 -14 -14 0 -24 -6 -24 -15 0 -17 30 -35 59 -35 28
0 27 -17 -1 -26 -19 -6 -19 -7 -5 -16 22 -12 23 -50 2 -42 -9 4 -15 0 -15 -10
0 -9 8 -16 18 -17 10 0 12 -3 5 -6 -20 -8 -15 -23 8 -23 11 0 18 -4 14 -10 -8
-12 16 -50 32 -50 19 0 16 -14 -6 -34 -11 -10 -17 -25 -14 -33 4 -11 10 -6 19
17 10 23 19 30 30 26 9 -3 23 -6 32 -6 12 0 13 -3 5 -11 -6 -6 -9 -18 -6 -25
3 -10 0 -12 -10 -8 -8 3 -18 1 -22 -5 -3 -6 -19 -11 -35 -11 -15 0 -30 -7 -34
-15 -4 -12 -11 -13 -32 -5 -21 8 -29 7 -39 -6 -11 -16 -12 -16 -18 0 -4 11
-12 14 -19 10 -7 -5 -21 -9 -30 -9 -14 -1 -18 5 -16 27 2 24 6 28 24 24 18 -5
20 -2 17 18 -5 22 -45 51 -56 39 -3 -3 -2 -15 2 -27 5 -12 3 -35 -5 -56 -7
-19 -13 -31 -13 -26 -1 5 -7 4 -13 -2 -7 -5 -27 -13 -44 -16 -28 -6 -32 -4
-38 19 -4 14 -11 23 -17 20 -7 -5 -6 -11 1 -20 13 -16 -15 -25 -82 -25 -43 0
-48 2 -48 22 0 15 -3 19 -10 12 -15 -15 -1 -44 21 -44 10 0 19 -4 19 -10 0
-14 -20 -13 -68 4 -22 8 -60 14 -84 13 l-43 -2 -1 40 c-1 22 -8 81 -17 130
-16 95 -23 156 -33 299 -6 86 -6 88 15 81 15 -4 21 -2 21 8 0 9 16 16 46 21
81 11 93 8 100 -19 7 -28 16 -31 33 -12 11 14 8 307 -3 326 -3 5 -17 6 -32 3
-24 -4 -25 -7 -19 -47 l6 -43 -72 -7 c-55 -6 -74 -4 -81 6 -7 11 -11 11 -15 2
-2 -7 -9 -13 -15 -13 -14 0 -4 236 12 306 12 50 13 50 69 67 31 9 106 23 166
31 129 18 190 34 265 71 30 16 61 28 68 28 6 0 12 4 12 9 0 4 9 8 19 8 11 0
23 5 26 11 4 6 13 8 21 5 8 -3 11 0 7 10 -3 9 1 14 11 14 9 0 28 12 43 26 14
14 28 23 31 20 3 -3 11 2 18 12 11 14 13 137 14 620 l0 602 -2500 0 -2500 0 0
-1285z m1214 651 c-7 -29 11 -43 25 -19 6 10 11 13 11 6 0 -6 14 -14 31 -18
29 -7 30 -9 26 -47 -3 -22 -9 -43 -14 -47 -6 -3 -13 -23 -16 -44 -5 -35 -3
-40 36 -68 23 -17 42 -38 42 -47 0 -9 5 -17 12 -17 21 0 23 -12 9 -45 -8 -19
-10 -41 -6 -49 53 -109 60 -140 35 -161 -26 -21 -17 -27 36 -22 42 3 54 1 70
-16 11 -12 15 -23 9 -27 -32 -20 11 -57 82 -70 21 -4 42 -13 49 -21 6 -8 20
-14 31 -14 27 0 12 -18 -23 -27 -32 -9 -39 -27 -11 -29 35 -2 36 -5 8 -29 -26
-20 -28 -26 -16 -40 39 -47 100 -52 183 -16 64 28 75 27 69 -4 -4 -26 8 -31
61 -27 11 1 17 -3 14 -10 -2 -7 -9 -12 -15 -11 -5 1 -13 -4 -16 -12 -9 -23 18
-18 48 10 l26 24 1 -22 c0 -19 2 -19 11 6 5 15 16 27 23 27 8 0 18 7 23 16 5
8 24 19 43 24 19 5 45 12 58 16 21 6 23 5 18 -15 -5 -21 -3 -23 26 -18 18 2
42 1 55 -4 18 -7 22 -5 22 12 0 13 6 20 18 18 9 -1 34 6 55 15 47 21 60 13 55
-30 -3 -23 0 -34 9 -34 7 0 13 -4 13 -10 0 -5 7 -10 15 -10 8 0 15 -9 15 -20
0 -11 -5 -20 -11 -20 -6 0 -9 7 -5 15 3 8 1 15 -3 15 -5 0 -12 -7 -15 -16 -3
-8 -10 -13 -15 -10 -5 3 -11 -1 -15 -9 -3 -9 0 -15 9 -15 20 0 20 -54 -1 -84
-10 -16 -12 -26 -5 -31 14 -8 15 -65 2 -65 -6 0 -9 -12 -8 -27 2 -23 -3 -28
-27 -33 -27 -5 -50 -30 -28 -30 16 0 24 -62 10 -72 -10 -6 -7 -13 11 -27 28
-22 27 -41 -20 -245 -16 -71 -27 -132 -24 -134 3 -3 5 0 5 6 0 7 9 12 21 12
11 0 18 -4 14 -9 -3 -5 -1 -12 5 -16 5 -3 10 -1 10 5 0 17 51 3 67 -18 8 -11
12 -12 13 -4 0 6 4 12 9 12 10 0 9 -26 -2 -36 -3 -4 -13 -1 -21 5 -11 10 -16
9 -24 -5 -6 -12 -24 -17 -59 -18 -50 -1 -50 -1 -47 29 4 29 4 30 -7 5 -23 -54
-73 -156 -87 -175 -13 -19 -14 -19 -9 8 2 15 1 27 -4 27 -4 0 -9 -15 -11 -32
-3 -34 -4 -35 -70 -37 -30 -1 -38 -5 -38 -20 0 -12 -9 -21 -25 -25 -14 -4 -23
-11 -20 -16 3 -5 -1 -7 -9 -4 -16 6 -31 48 -27 77 2 16 -2 18 -28 12 -30 -6
-30 -6 -34 42 -3 45 -4 43 -6 -17 -2 -36 -5 -57 -8 -47 -3 13 -15 17 -47 17
-23 0 -51 7 -62 15 -10 8 -29 15 -41 15 -12 0 -25 5 -28 10 -3 6 -13 10 -21
10 -24 0 -48 28 -36 43 6 7 8 43 6 80 l-4 69 30 -7 c17 -4 30 -2 30 3 0 5 -15
12 -32 15 -62 10 -93 20 -107 34 -8 8 -22 12 -32 10 -11 -3 -19 -2 -19 3 0 4
-22 10 -49 14 -42 5 -64 1 -143 -29 -101 -38 -120 -42 -117 -22 5 38 -22 51
-50 25 -9 -8 -11 -8 -8 -2 4 7 -1 15 -11 19 -33 13 -113 22 -118 14 -3 -5 -16
-9 -28 -9 -13 0 -28 -6 -34 -12 -11 -14 -21 -127 -11 -131 3 -1 -7 -15 -23
-32 -17 -18 -26 -23 -22 -12 3 9 2 17 -4 17 -15 0 -21 -41 -27 -179 -3 -69 -7
-127 -10 -129 -3 -3 -5 13 -5 35 0 38 -2 41 -30 45 -25 4 -30 1 -31 -16 0 -12
-3 -16 -5 -10 -6 14 -55 4 -101 -20 -22 -11 -33 -24 -33 -39 0 -33 -13 -47
-38 -40 -23 6 -25 17 -27 148 0 36 -3 40 -26 43 -26 3 -26 4 -21 73 3 48 1 69
-7 69 -6 0 -11 11 -11 25 0 16 -6 25 -15 25 -8 0 -15 -9 -15 -20 0 -12 -7 -20
-17 -21 -10 0 -26 -2 -35 -4 -13 -2 -18 3 -18 18 0 13 3 17 8 10 4 -6 7 48 7
120 l0 132 -39 3 c-38 3 -38 4 -33 39 5 26 -2 58 -27 122 -18 47 -39 104 -46
125 -13 39 -55 96 -72 96 -5 0 -6 -9 -3 -20 4 -12 2 -20 -5 -20 -8 0 -10 11
-6 34 5 25 2 39 -11 52 -10 10 -19 25 -21 33 -12 68 -10 124 11 326 l25 230
-48 80 c-73 123 -74 124 -54 132 9 3 20 0 24 -7 5 -8 15 -10 26 -5 11 5 22 7
27 7 4 -1 11 8 16 21 8 20 15 23 43 19 18 -2 38 -11 45 -19 17 -21 56 -12 70
17 10 20 13 22 18 8 4 -9 25 -24 47 -33 38 -15 43 -15 75 0 19 9 44 14 56 11
25 -5 77 34 77 58 0 8 9 18 21 21 11 4 18 12 16 19 -7 18 33 42 43 26 6 -10
14 -7 31 9 25 23 35 26 44 11 9 -15 35 -12 35 4 0 8 16 16 40 20 22 3 40 10
40 15 0 12 149 83 182 86 15 1 34 10 43 19 24 23 36 20 29 -8z m2553 -491 c19
-8 46 -15 59 -15 13 0 24 -3 24 -6 0 -15 -86 -101 -122 -121 -47 -28 -48 -28
-48 -3 0 11 -4 20 -10 20 -5 0 -10 -7 -10 -15 0 -22 -58 -24 -72 -2 -10 16
-103 15 -103 -1 0 -19 -26 -32 -67 -32 -21 0 -38 -4 -38 -10 0 -5 -13 -10 -29
-10 -17 0 -33 -4 -36 -10 -3 -5 -32 -17 -63 -26 -31 -9 -72 -25 -91 -36 -19
-10 -41 -16 -49 -13 -8 3 -21 0 -28 -6 -7 -6 -17 -8 -22 -5 -7 4 -53 -4 -97
-18 -5 -2 -22 -6 -37 -10 -25 -7 -43 -38 -30 -51 9 -9 123 5 164 20 31 12 47
12 110 -1 56 -12 110 -14 238 -10 91 4 179 9 196 12 l31 6 7 -134 c3 -73 10
-248 16 -388 5 -140 12 -294 15 -342 l6 -86 -51 -4 c-46 -3 -51 -1 -55 20 -3
12 -7 33 -10 46 -5 23 -2 25 42 28 39 2 49 7 51 23 1 11 -8 32 -21 48 -20 22
-32 27 -72 27 -38 0 -48 4 -52 20 -7 25 -33 26 -33 1 0 -10 -7 -24 -15 -31 -8
-7 -15 -15 -15 -19 0 -8 45 -56 68 -73 12 -8 22 -32 26 -62 l8 -50 -42 38
c-24 21 -62 47 -86 58 -43 18 -57 41 -31 51 6 3 -4 6 -24 6 -23 1 -39 -4 -42
-13 -5 -11 -38 -14 -163 -15 -86 -1 -164 -6 -173 -11 -10 -6 -11 -10 -3 -10
22 0 12 -18 -15 -26 -16 -4 -31 -7 -35 -6 -3 1 -4 -11 -2 -26 3 -15 4 -44 4
-64 -1 -34 2 -38 25 -38 36 0 55 20 44 47 -8 21 -5 23 21 23 27 0 30 -3 30
-30 0 -28 3 -30 34 -30 42 0 49 10 36 45 -8 20 -7 27 4 31 9 3 12 12 9 22 -9
22 -23 32 -50 32 -13 0 -23 4 -23 9 0 15 181 1 197 -14 20 -20 68 -27 108 -16
23 6 46 6 60 1 38 -14 100 -85 113 -128 12 -38 16 -90 5 -64 -6 14 -63 17 -63
2 0 -5 7 -10 16 -10 9 0 12 -5 8 -11 -5 -8 1 -10 19 -5 25 6 26 4 32 -57 4
-34 5 -86 3 -115 l-3 -54 -39 27 c-21 14 -51 29 -67 32 -16 3 -29 12 -29 19 0
8 -7 14 -15 14 -12 0 -15 13 -15 60 l0 61 -152 -3 -153 -3 -3 -77 -3 -78 -64
0 c-59 0 -65 2 -84 29 -12 16 -21 34 -21 40 0 6 -4 11 -9 11 -17 0 -117 179
-157 280 -12 30 -14 31 -11 8 5 -31 1 -33 -37 -18 -14 5 -27 17 -27 27 -1 16
-2 17 -6 1 -3 -13 -12 -16 -36 -13 -18 3 -26 3 -19 -1 16 -8 16 -25 -1 -18 -8
3 -13 -3 -13 -16 0 -24 22 -35 30 -14 4 10 13 13 32 8 17 -4 29 -2 35 7 6 9
12 10 17 4 4 -5 14 -10 22 -10 18 0 62 -74 56 -96 -2 -9 5 -21 15 -28 11 -6
19 -16 19 -22 0 -8 -5 -7 -15 1 -13 11 -14 10 -9 -4 4 -10 13 -15 21 -12 9 4
19 -6 28 -27 7 -17 12 -34 10 -35 -9 -9 -46 11 -42 22 3 7 -3 20 -14 30 -23
19 -36 21 -22 4 6 -7 13 -21 16 -31 6 -15 3 -17 -16 -11 -12 4 -28 14 -35 23
-12 15 -13 14 -8 -1 6 -19 -9 -25 -19 -8 -4 6 -11 8 -16 5 -5 -3 -6 1 -3 9 4
12 0 16 -16 16 -11 0 -18 -4 -15 -10 4 -6 -5 -10 -19 -10 -22 0 -26 5 -26 28
0 21 -2 24 -10 12 -6 -9 -10 -10 -10 -3 0 23 20 24 29 1 6 -13 11 -17 12 -10
3 24 4 27 13 40 6 10 15 6 36 -20 25 -29 29 -31 35 -15 6 15 10 15 23 5 9 -7
6 2 -7 20 -12 17 -18 32 -12 32 6 0 11 -4 11 -10 0 -5 7 -10 15 -10 8 0 15 5
15 10 0 6 -4 10 -10 10 -5 0 -14 15 -20 33 -8 28 -9 28 -6 5 2 -22 -1 -28 -15
-28 -11 0 -19 7 -19 15 0 13 -2 14 -14 3 -8 -7 -10 -14 -5 -16 5 -2 9 -10 9
-18 0 -23 -19 -7 -34 29 -8 18 -15 26 -15 20 -1 -7 -9 -13 -18 -14 -14 0 -13
-2 5 -9 22 -9 31 -40 12 -40 -5 0 -7 6 -4 13 3 8 -3 13 -15 13 -11 0 -17 -4
-15 -8 3 -4 0 -8 -6 -8 -8 0 -10 9 -6 24 3 14 2 27 -3 30 -4 3 -8 37 -8 75 l0
69 34 4 c18 2 33 -1 34 -7 0 -5 3 -4 6 3 8 19 63 15 63 -5 0 -9 3 -14 6 -11 3
3 -2 32 -10 64 -20 79 -56 264 -56 291 0 12 7 26 16 31 10 6 17 27 20 65 3 49
1 57 -16 62 -11 4 -18 11 -14 16 3 5 -13 17 -35 27 -22 9 -41 21 -41 25 0 4 9
3 19 -3 11 -5 21 -10 23 -10 6 0 0 111 -6 117 -11 11 -6 61 7 67 8 3 7 8 -6
16 -17 11 -17 13 -2 23 10 8 14 22 11 37 -2 14 -5 29 -5 33 -1 5 -5 5 -11 2
-5 -3 -10 2 -10 12 0 14 -2 15 -9 4 -7 -10 -13 -11 -31 -1 -18 10 -20 14 -9
21 8 5 26 9 42 9 29 0 37 17 12 26 -8 4 -15 14 -15 24 0 20 23 43 33 33 4 -3
17 -2 30 4 12 6 42 17 67 24 45 13 121 46 130 58 18 22 83 39 154 40 44 1 100
9 125 17 25 9 75 20 111 24 97 12 140 20 197 36 29 9 56 13 61 10 4 -2 28 5
52 16 25 12 51 22 58 24 8 1 16 5 20 8 11 11 83 6 119 -9z m59 -352 c15 -5 15
-7 0 -15 -25 -14 -20 -31 7 -22 12 4 36 9 52 9 17 1 57 9 90 18 33 8 95 19
138 22 89 8 85 15 63 -108 l-11 -68 -23 30 c-49 66 -92 50 -192 -70 -36 -43
-70 -78 -76 -78 -7 -1 -19 -17 -28 -36 -15 -31 -21 -35 -56 -35 -36 0 -40 -3
-61 -46 -27 -58 -19 -77 40 -85 73 -10 74 -49 3 -49 -25 0 -35 -5 -39 -20 -3
-11 -10 -20 -15 -20 -5 0 -8 -10 -6 -22 2 -18 11 -24 37 -26 19 -2 44 -10 55
-18 29 -20 48 -18 71 9 22 25 45 65 45 78 0 5 -11 19 -25 31 -31 27 -31 39 0
68 13 12 23 26 21 29 -3 3 2 14 9 24 12 16 13 16 19 -5 4 -13 9 -60 13 -105 4
-59 9 -80 18 -76 7 2 15 13 18 24 4 16 14 19 71 19 50 0 66 -3 66 -14 0 -9 7
-12 20 -9 12 3 20 2 19 -3 -1 -5 0 -16 4 -24 3 -8 8 -49 10 -91 l5 -76 -71 -6
c-97 -8 -101 -14 -105 -145 -3 -122 -7 -141 -24 -124 -7 7 -33 12 -58 12 -63
0 -76 -17 -76 -108 -1 -115 -18 -88 -25 38 -9 158 -7 148 -20 130 -8 -11 -9
-5 -4 23 7 41 5 43 -33 23 -73 -37 -68 -46 -76 146 -4 95 -9 202 -11 238 -18
250 -25 498 -15 524 10 29 11 29 75 22 36 -4 72 -9 81 -13z m284 -165 c18 -30
50 -147 50 -183 0 -9 -4 -13 -10 -10 -5 3 -10 15 -10 26 0 10 -4 19 -10 19 -5
0 -10 -6 -10 -14 0 -9 -20 -15 -67 -19 -38 -3 -68 -4 -69 -4 -1 1 -4 30 -7 63
-6 61 -6 62 34 108 48 54 72 58 99 14z m-3938 -213 c-3 -16 0 -25 8 -25 9 0
10 -14 5 -57 -8 -60 -10 -84 -13 -166 -1 -27 -5 -46 -9 -44 -5 3 -7 -12 -7
-34 1 -21 -2 -42 -7 -45 -5 -3 -9 -11 -9 -17 0 -8 4 -7 9 2 6 9 7 -10 4 -50
-4 -40 -12 -69 -22 -77 -9 -8 -10 -11 -3 -7 6 3 12 1 12 -4 0 -6 -5 -11 -10
-11 -7 0 -7 -6 0 -19 7 -14 7 -22 -1 -27 -8 -5 -8 -9 1 -14 7 -4 10 -15 7 -25
-4 -9 -11 -13 -17 -10 -6 4 -10 -8 -10 -28 0 -22 -6 -37 -15 -41 -17 -6 -21 9
-5 19 6 3 7 17 4 31 -6 23 3 30 31 24 5 -1 1 7 -9 18 -17 19 -17 21 1 32 17
10 17 11 -2 6 -11 -3 -26 -2 -34 3 -11 7 -11 10 1 17 7 5 19 22 26 37 8 18 16
25 25 21 9 -6 9 -5 0 8 -7 8 -9 19 -5 23 4 5 2 5 -4 2 -7 -4 -17 -1 -23 7 -9
11 -6 23 11 52 12 21 17 34 10 30 -7 -4 -12 -2 -12 3 0 6 6 11 14 11 8 0 17 7
20 16 3 8 2 13 -3 10 -5 -3 -21 6 -37 20 -16 14 -24 24 -19 23 36 -6 47 12 16
27 -14 7 -16 14 -10 29 8 19 8 19 15 -2 7 -26 24 -31 24 -7 0 8 5 12 10 9 6
-3 10 2 10 12 0 11 -15 26 -35 37 -19 11 -33 21 -30 24 2 3 15 -2 28 -11 22
-14 24 -14 37 6 12 20 12 21 -4 8 -15 -13 -16 -11 -14 17 1 17 7 33 14 36 6 2
14 14 17 26 4 15 2 20 -8 16 -19 -7 -27 20 -9 35 8 6 12 14 9 17 -4 4 13 32
20 32 1 0 0 -11 -3 -25z m3948 0 c0 -8 6 -12 13 -10 6 3 18 -7 25 -22 15 -33
17 -137 2 -128 -5 3 -10 15 -10 26 0 10 -4 19 -10 19 -5 0 -10 -6 -10 -14 0
-11 -18 -15 -67 -18 -38 -2 -69 -3 -69 -3 -1 0 -4 35 -7 77 l-5 77 31 4 c76 9
107 7 107 -8z m284 -47 c12 -108 15 -104 -61 -112 -55 -6 -68 -4 -75 9 -5 8
-14 13 -19 10 -5 -4 -6 -11 -3 -17 4 -6 1 -9 -7 -6 -9 3 -16 26 -19 66 -5 59
-4 62 18 62 12 0 22 6 22 14 0 14 25 20 106 24 30 2 31 1 38 -50z m-2053 -527
c-11 -7 -7 -10 15 -13 l29 -3 -45 -46 c-74 -77 -83 -88 -68 -85 41 7 58 19 58
40 0 34 53 79 94 80 36 1 47 -15 38 -55 -4 -22 -39 -31 -46 -13 -7 19 -19 17
-33 -6 -10 -15 -10 -22 2 -34 19 -19 19 -26 0 -26 -8 0 -17 -11 -21 -24 -7
-28 -33 -43 -35 -21 -1 8 -2 20 -3 25 -1 6 3 9 7 8 11 -4 37 44 30 54 -5 10
-27 -11 -36 -34 -7 -20 -27 -25 -27 -7 0 5 -5 7 -10 4 -6 -3 -18 -4 -28 0 -16
4 -18 12 -12 48 11 73 42 112 90 116 13 1 13 -1 1 -8z m-1719 -1332 c19 -19
65 -31 131 -33 52 -1 77 -21 77 -61 0 -47 10 -73 30 -78 10 -3 27 -22 37 -42
25 -53 72 -68 183 -60 46 4 90 11 97 17 9 7 47 2 128 -17 105 -24 122 -26 200
-16 106 13 122 21 130 69 14 77 9 75 170 89 53 4 79 2 90 -7 10 -8 15 -9 15
-1 0 6 9 11 19 11 11 0 27 10 35 21 11 17 21 20 48 16 58 -10 93 -19 106 -30
7 -6 27 -12 45 -14 17 -2 36 -8 41 -13 6 -6 16 -5 28 1 13 7 23 7 32 0 13 -11
46 -15 80 -9 29 4 48 -49 23 -63 -9 -6 -26 -28 -37 -51 -16 -34 -18 -48 -10
-83 11 -49 -7 -100 -39 -110 -59 -18 -194 -32 -400 -39 -125 -5 -169 -10 -181
-21 -9 -8 -20 -12 -23 -8 -4 3 -7 -1 -7 -11 0 -9 5 -14 10 -11 5 3 10 -3 10
-14 0 -11 5 -23 11 -26 17 -11 27 -49 18 -66 -5 -11 -27 -19 -56 -23 -88 -10
-99 -13 -113 -21 -7 -4 -65 -12 -129 -16 -64 -5 -131 -11 -148 -14 -30 -4
-130 -52 -157 -75 -7 -5 -34 -11 -61 -14 -59 -5 -149 -38 -179 -64 -12 -10
-34 -26 -49 -36 -31 -19 -60 -42 -89 -69 -11 -10 -22 -16 -25 -13 -3 3 -19 -2
-35 -10 -17 -9 -27 -18 -25 -21 3 -3 -15 -16 -41 -30 -26 -14 -73 -47 -104
-74 -53 -46 -73 -55 -148 -62 -14 -2 -31 -7 -38 -11 -7 -4 -12 -2 -12 7 0 10
-12 15 -42 15 -56 0 -75 4 -123 27 -52 25 -84 59 -114 121 -23 45 -25 61 -25
189 -1 156 9 189 74 250 18 17 57 67 86 112 29 44 57 84 62 87 5 3 15 26 22
52 9 32 20 48 37 55 12 4 23 13 23 19 0 6 7 18 15 26 8 9 15 25 15 37 0 40 28
69 65 66 38 -4 60 12 69 46 4 14 19 31 35 40 20 10 32 25 36 47 4 18 9 36 11
40 7 10 48 -4 66 -23z m2972 -152 c-5 -52 -12 -75 -31 -97 -14 -17 -29 -30
-35 -30 -5 0 -15 -6 -22 -13 -31 -31 22 -138 61 -122 26 12 147 5 156 -9 4 -6
6 -40 5 -76 -3 -57 -6 -66 -25 -75 -13 -5 -23 -13 -23 -18 0 -4 -4 -5 -10 -2
-5 3 -10 1 -10 -4 0 -6 -3 -10 -7 -9 -10 4 -105 -32 -118 -43 -5 -5 -36 -9
-70 -9 -34 0 -109 -9 -167 -19 -112 -21 -268 -26 -268 -9 0 6 -7 8 -15 4 -8
-3 -19 3 -25 14 -13 24 -13 40 0 20 5 -8 10 -10 10 -4 0 15 -35 54 -49 54 -7
0 -9 5 -6 10 4 6 -5 10 -20 10 -14 0 -48 11 -75 25 -27 14 -54 25 -61 25 -16
0 -63 39 -70 58 -4 9 -3 27 2 39 5 14 4 25 -2 29 -6 3 -8 26 -4 59 6 48 5 54
-14 60 -13 4 -21 15 -21 29 0 12 -5 27 -11 33 -7 7 -8 24 -4 45 l8 33 9 -27 9
-27 21 21 c14 14 17 23 9 31 -6 6 -11 21 -11 33 0 13 -4 26 -10 29 -5 3 -10
18 -10 32 0 25 1 25 63 19 34 -3 83 -9 109 -14 34 -6 56 -5 80 5 32 14 124 13
147 -2 6 -3 11 -21 11 -40 l0 -33 56 -4 c50 -3 57 -1 65 19 10 28 19 32 52 26
18 -4 32 -15 37 -29 8 -21 16 -24 60 -24 49 0 50 1 50 30 0 26 5 30 43 40 23
6 60 17 82 24 l40 13 8 -31 c4 -17 4 -62 1 -99z m326 -48 c21 -15 35 -18 81
-13 35 4 59 2 63 -4 3 -6 11 -34 16 -64 12 -62 38 -127 60 -146 8 -8 11 -11 5
-9 -17 8 -34 -17 -19 -30 6 -7 15 -9 18 -5 4 3 4 -1 0 -11 -7 -18 -24 -23 -24
-7 0 12 -48 3 -67 -13 -9 -6 -13 -6 -13 2 0 29 -72 78 -121 82 -36 3 -89 -9
-89 -20 0 -11 -47 -9 -48 3 0 6 -4 42 -8 80 l-7 68 50 -7 c62 -8 62 -8 64 160
l2 120 6 -83 c6 -73 10 -86 31 -103z m630 72 c0 -5 12 -23 26 -40 26 -32 34
-33 119 -19 16 2 21 -3 23 -29 4 -38 -22 -93 -44 -93 -8 0 -17 -7 -21 -16 -3
-8 -11 -13 -18 -10 -7 2 -23 -6 -35 -19 -23 -24 -50 -24 -50 1 0 8 -4 14 -10
14 -12 0 -13 -47 -1 -54 14 -9 1 -45 -20 -57 -17 -9 -19 -6 -19 26 0 28 -5 38
-22 44 -16 7 -26 5 -34 -5 -18 -22 -24 -17 -24 22 0 43 -19 66 -43 52 -15 -8
-17 -2 -17 61 0 82 6 88 90 89 44 1 58 5 69 21 14 22 31 28 31 12z"/>
<path d="M4614 2843 c3 -10 0 -28 -7 -40 -16 -30 -10 -144 8 -137 8 4 15 -8
20 -33 4 -21 10 -42 13 -48 8 -11 10 -29 15 -92 2 -24 8 -48 14 -54 8 -8 10 9
8 65 -2 53 1 79 10 86 11 9 12 7 8 -8 -2 -11 0 -23 6 -26 7 -5 11 2 10 16 0
13 2 33 6 46 5 13 3 22 -3 22 -7 0 -10 15 -8 35 1 19 -1 35 -6 35 -4 0 -5 7
-2 15 4 8 2 15 -4 15 -13 0 -12 53 2 63 7 4 3 9 -11 13 -14 4 -23 14 -23 25 0
11 -4 19 -10 19 -5 0 -10 -12 -10 -26 0 -14 -4 -23 -10 -19 -5 3 -10 15 -10
26 0 10 -5 19 -11 19 -6 0 -8 -8 -5 -17z"/>
</g>
</svg>
